<?xml version="1.0" encoding="utf-8"?>
<!-- Generator: Adobe Illustrator 24.2.1, SVG Export Plug-In . SVG Version: 6.00 Build 0)  -->
<svg version="1.1" id="Camada_1" xmlns="http://www.w3.org/2000/svg" xmlns:xlink="http://www.w3.org/1999/xlink" x="0px" y="0px"
	 viewBox="0 0 38.81 37.79" style="enable-background:new 0 0 38.81 37.79;" xml:space="preserve">
<style type="text/css">
	.st0{fill:#FFFFFF;}
</style>
<g>
	<g>
		<path class="st0" d="M19.4,33.89c-8.27,0-15-6.73-15-15s6.73-15,15-15s15,6.73,15,15S27.68,33.89,19.4,33.89z M19.4,4.89
			c-7.72,0-14,6.28-14,14s6.28,14,14,14s14-6.28,14-14S27.12,4.89,19.4,4.89z"/>
	</g>
</g>
<g>
	<path class="st0" d="M26.6,20.35v4.98h-2.89v-4.64c0-1.17-0.42-1.96-1.46-1.96c-0.8,0-1.27,0.54-1.48,1.06
		c-0.08,0.19-0.1,0.44-0.1,0.7v4.85h-2.89c0,0,0.04-7.86,0-8.68h2.89v1.23c-0.01,0.01-0.01,0.02-0.02,0.03h0.02v-0.03
		c0.38-0.59,1.07-1.43,2.6-1.43C25.18,16.44,26.6,17.68,26.6,20.35L26.6,20.35z M14.77,12.46c-0.99,0-1.63,0.65-1.63,1.5
		c0,0.83,0.63,1.5,1.6,1.5h0.02c1.01,0,1.63-0.67,1.63-1.5C16.37,13.11,15.76,12.46,14.77,12.46L14.77,12.46z M13.31,25.33h2.88
		v-8.68h-2.88V25.33z"/>
</g>
</svg>
