<?xml version="1.0" encoding="utf-8"?>
<!-- Generator: Adobe Illustrator 24.2.1, SVG Export Plug-In . SVG Version: 6.00 Build 0)  -->
<svg version="1.1" id="Camada_1" xmlns="http://www.w3.org/2000/svg" xmlns:xlink="http://www.w3.org/1999/xlink" x="0px" y="0px"
	 viewBox="0 0 38.81 37.79" style="enable-background:new 0 0 38.81 37.79;" xml:space="preserve">
<style type="text/css">
	.st0{fill:#FFFFFF;}
</style>
<g>
	<g>
		<path class="st0" d="M19.4,33.89c-8.27,0-15-6.73-15-15s6.73-15,15-15s15,6.73,15,15S27.68,33.89,19.4,33.89z M19.4,4.89
			c-7.72,0-14,6.28-14,14s6.28,14,14,14s14-6.28,14-14S27.12,4.89,19.4,4.89z"/>
	</g>
	<path id="XMLID_53_" class="st0" d="M17.5,26.1h2.94v-7.35h2.05l0.22-2.46h-2.27c0,0,0-0.92,0-1.4c0-0.58,0.12-0.81,0.68-0.81
		c0.45,0,1.59,0,1.59,0v-2.56c0,0-1.68,0-2.03,0c-2.19,0-3.17,0.96-3.17,2.8c0,1.6,0,1.96,0,1.96h-1.53v2.49h1.53V26.1z"/>
</g>
</svg>
