<?xml version="1.0" encoding="utf-8"?>
<!-- Generator: Adobe Illustrator 24.2.1, SVG Export Plug-In . SVG Version: 6.00 Build 0)  -->
<svg version="1.1" id="Camada_1" xmlns="http://www.w3.org/2000/svg" xmlns:xlink="http://www.w3.org/1999/xlink" x="0px" y="0px"
	 viewBox="0 0 189.88 58.38" style="enable-background:new 0 0 189.88 58.38;" xml:space="preserve">
<style type="text/css">
	.st0{fill:#94C123;}
	.st1{fill:#009CDE;}
	.st2{fill:#FFFFFF;}
	.st3{fill:#139AD7;}
	.st4{fill:#A0BF37;}
</style>
<g>
	<g>
		<path class="st0" d="M189.31,10.22c-0.37-0.64-1.19-0.86-1.84-0.49l-10.78,6.33v3.1c0.05-0.02,0.09-0.04,0.14-0.07l11.99-7.04
			C189.46,11.69,189.68,10.87,189.31,10.22z"/>
		<path class="st1" d="M184.66,17.18c-0.37-0.64-1.19-0.86-1.84-0.49l-6.13,3.59v3.1l7.48-4.36
			C184.81,18.64,185.03,17.82,184.66,17.18z"/>
		<g>
			<path class="st2" d="M78.4,34.6c0,1.74-0.45,3.04-1.34,3.89c-0.9,0.86-2.2,1.29-3.91,1.29c-1.71,0-3.02-0.43-3.91-1.29
				c-0.9-0.86-1.34-2.15-1.34-3.89V19.64h-6.27v15.54c0,3.17,1.03,5.61,3.1,7.34c2.06,1.73,4.87,2.59,8.43,2.59
				c3.56,0,6.37-0.86,8.43-2.59c2.06-1.73,3.1-4.17,3.1-7.34V19.64H78.4V34.6z"/>
			<path class="st2" d="M99.19,25.87c-2.26,0-4.19,0.66-5.8,1.99l-0.31-1.6h-5.45v26.87h6.27V43.9c1.38,0.81,3.04,1.21,4.99,1.21
				c2.78,0,4.95-0.85,6.5-2.55c1.56-1.7,2.34-4.19,2.34-7.46C107.71,28.95,104.87,25.87,99.19,25.87z M100.3,39.11
				c-0.69,0.93-1.69,1.4-3.02,1.4c-0.73,0-1.34-0.1-1.85-0.29c-0.51-0.19-1.02-0.49-1.54-0.88v-7.48c1.01-0.93,2.18-1.4,3.51-1.4
				c1.4,0,2.41,0.32,3.02,0.97c0.61,0.65,0.92,1.83,0.92,3.54C101.33,36.8,100.98,38.18,100.3,39.11z"/>
			<polygon class="st2" points="110.91,44.72 117.18,44.72 117.18,34.63 127.69,34.63 127.69,29.73 117.18,29.73 117.18,23.4 
				129.13,23.4 129.13,18.57 110.91,18.57 			"/>
			<polygon class="st2" points="130.19,30.9 132.91,30.9 132.91,44.72 139.18,44.72 139.18,26.26 130.73,26.26 			"/>
			<rect x="132.41" y="18.63" class="st2" width="6.82" height="4.71"/>
			<path class="st2" d="M149.35,27.98l-0.19-1.71h-5.96v18.46h6.27V32.3c0.73-0.36,1.71-0.71,2.96-1.03
				c1.25-0.32,2.41-0.55,3.51-0.68v-4.71c-1.17,0.1-2.35,0.36-3.54,0.76C151.19,27.03,150.18,27.48,149.35,27.98z"/>
			<path class="st2" d="M171.59,34.93c-0.81-0.51-1.93-0.98-3.39-1.42c-0.55-0.18-1.08-0.34-1.6-0.47c-1.04-0.31-1.74-0.55-2.1-0.72
				c-0.36-0.17-0.55-0.43-0.55-0.8c0-0.42,0.29-0.69,0.86-0.82c0.57-0.13,1.43-0.19,2.57-0.19c0.8,0,1.67,0.08,2.59,0.25
				c0.92,0.17,1.73,0.41,2.43,0.72v-4.71c-0.78-0.26-1.74-0.47-2.88-0.64c-1.14-0.17-2.27-0.25-3.39-0.25
				c-5.71,0-8.57,1.88-8.57,5.65c0,1.48,0.4,2.63,1.21,3.45c0.8,0.82,2.12,1.54,3.93,2.16l1.67,0.55c1.12,0.34,1.9,0.62,2.34,0.86
				c0.44,0.23,0.66,0.53,0.66,0.9c0,0.44-0.23,0.72-0.68,0.84c-0.45,0.12-1.29,0.18-2.51,0.18c-0.99,0-2.07-0.11-3.25-0.33
				c-1.18-0.22-2.21-0.51-3.1-0.88v4.79c0.8,0.31,1.87,0.57,3.19,0.78c1.32,0.21,2.71,0.31,4.17,0.31c2.8,0,4.94-0.49,6.41-1.46
				c1.47-0.97,2.2-2.4,2.2-4.26c0-1.06-0.17-1.95-0.51-2.65C172.96,36.04,172.39,35.43,171.59,34.93z"/>
			<path class="st2" d="M185.61,40.48c-0.93,0-1.61-0.18-2.03-0.53c-0.42-0.35-0.62-0.97-0.62-1.85v-7.09l0-0.55h1.88v-4.21h-1.88
				v-5.25l-6.27,3.66v1.59h-0.63v4.21h0.63v0.55v7.52c0,2.1,0.55,3.73,1.66,4.87c1.1,1.14,2.77,1.71,5,1.71
				c1.82,0,3.34-0.26,4.56-0.78v-4.25C187.13,40.35,186.36,40.48,185.61,40.48z"/>
		</g>
	</g>
	<g>
		<path class="st3" d="M25.16,2.71c-0.97-0.56-2.16-0.56-3.13,0L2.5,13.99l6.27,3.62l14.83-8.56l11.89,6.87l6.27-3.62L25.16,2.71z"
			/>
		<path class="st4" d="M52,8.81c-0.58-1.01-1.88-1.36-2.89-0.77l-7.36,4.25l-6.27,3.62L6.71,32.52v-4.26l19.36-11.17
			c1.01-0.58,1.36-1.88,0.77-2.89c-0.58-1.01-1.88-1.36-2.89-0.77L6.71,23.38v-2.04l-6.27-3.62c0,0.03,0,0.17,0,0.2V41.4
			c0,1.12,0.6,2.15,1.57,2.71l20.01,11.56c0.48,0.28,1.03,0.42,1.57,0.42c0.54,0,1.08-0.14,1.57-0.42l20.01-11.56
			c0.97-0.56,1.57-1.59,1.57-2.71V18.29c0-0.01,0,0.64,0,0.63l-6.26,3.68v16.99l-16.88,9.75l-10.84-6.26l13.32-7.69
			c1.01-0.58,1.36-1.88,0.77-2.89c-0.58-1.01-1.88-1.36-2.89-0.77L8.52,40.64l-1.81-1.05V37.4l44.52-25.7
			C52.24,11.12,52.59,9.82,52,8.81z"/>
	</g>
</g>
</svg>
