<?xml version="1.0" encoding="utf-8"?>
<!-- Generator: Adobe Illustrator 24.2.1, SVG Export Plug-In . SVG Version: 6.00 Build 0)  -->
<svg version="1.1" id="Camada_1" xmlns="http://www.w3.org/2000/svg" xmlns:xlink="http://www.w3.org/1999/xlink" x="0px" y="0px"
	 viewBox="0 0 91.28 95.23" style="enable-background:new 0 0 91.28 95.23;" xml:space="preserve">
<style type="text/css">
	.st0{fill:#A0BF37;}
</style>
<g id="XMLID_91_">
	<path id="XMLID_98_" class="st0" d="M84.95,87.54h-3.71V33.67c0-2.51-2.04-4.55-4.55-4.55H68.4c-2.51,0-4.55,2.04-4.55,4.55v53.87
		h-9.42V58.07c0-2.51-2.04-4.55-4.55-4.55h-8.29c-2.51,0-4.55,2.04-4.55,4.55v29.46h-9.42V72.28c0-2.51-2.04-4.55-4.55-4.55h-8.29
		c-2.51,0-4.55,2.04-4.55,4.55v15.26H6.33c-0.93,0-1.69,0.76-1.69,1.69c0,0.93,0.76,1.69,1.69,1.69h78.62
		c0.93,0,1.69-0.76,1.69-1.69C86.64,88.29,85.88,87.54,84.95,87.54L84.95,87.54z M24.24,87.54H13.62V72.28
		c0-0.64,0.52-1.16,1.16-1.16h8.29c0.64,0,1.16,0.52,1.16,1.16V87.54z M51.05,87.54H40.43V58.07c0-0.64,0.52-1.16,1.16-1.16h8.29
		c0.64,0,1.16,0.52,1.16,1.16V87.54z M77.86,87.54H67.24V33.67c0-0.64,0.52-1.16,1.16-1.16h8.29c0.64,0,1.16,0.52,1.16,1.16V87.54z
		 M77.86,87.54"/>
	<path id="XMLID_95_" class="st0" d="M81.24,6.09c0.02-0.46-0.14-0.93-0.49-1.28c-0.35-0.35-0.82-0.52-1.28-0.49
		c-0.03,0-0.05,0-0.08,0H69.15c-0.94,0-1.69,0.76-1.69,1.69c0,0.93,0.76,1.69,1.69,1.69h6.32L58.74,24.42l-6.31-6.31
		c-0.32-0.32-0.75-0.5-1.2-0.5s-0.88,0.18-1.2,0.5L19.63,48.52c-0.66,0.66-0.66,1.73,0,2.39c0.33,0.33,0.76,0.49,1.2,0.49
		c0.43,0,0.87-0.17,1.2-0.5L51.24,21.7L57.55,28c0.66,0.66,1.73,0.66,2.39,0l17.92-17.92v5.72c0,0.93,0.76,1.69,1.69,1.69
		c0.93,0,1.69-0.76,1.69-1.69V6.17C81.24,6.14,81.24,6.12,81.24,6.09L81.24,6.09z M81.24,6.09"/>
	<path id="XMLID_92_" class="st0" d="M16.82,55.62c0,0.93-0.76,1.69-1.69,1.69c-0.93,0-1.69-0.76-1.69-1.69
		c0-0.93,0.76-1.69,1.69-1.69C16.06,53.93,16.82,54.68,16.82,55.62L16.82,55.62z M16.82,55.62"/>
</g>
</svg>
