<?xml version="1.0" encoding="utf-8"?>
<!-- Generator: Adobe Illustrator 24.2.1, SVG Export Plug-In . SVG Version: 6.00 Build 0)  -->
<svg version="1.1" id="Camada_1" xmlns="http://www.w3.org/2000/svg" xmlns:xlink="http://www.w3.org/1999/xlink" x="0px" y="0px"
	 viewBox="0 0 91.28 95.23" style="enable-background:new 0 0 91.28 95.23;" xml:space="preserve">
<style type="text/css">
	.st0{fill:#A0BF37;}
</style>
<g id="XMLID_54_">
	<path id="XMLID_59_" class="st0" d="M85.07,11.48h-5.42V6c0-0.93-0.76-1.69-1.69-1.69c-0.93,0-1.69,0.76-1.69,1.69v6.47l-7.07,7.09
		C62.07,13.07,52.9,9.51,43.19,9.51c-10.33,0-20.05,4.02-27.35,11.33C8.53,28.15,4.51,37.86,4.51,48.19
		c0,10.33,4.02,20.05,11.33,27.35c1.14,1.14,2.33,2.19,3.58,3.17l-9.32,9.32c-0.66,0.66-0.66,1.73,0,2.39
		c0.33,0.33,0.76,0.5,1.2,0.5c0.43,0,0.87-0.17,1.2-0.5l9.72-9.72c6.2,4.02,13.42,6.17,20.98,6.17c7.6,0,14.85-2.18,21.07-6.23
		l9.78,9.78c0.33,0.33,0.76,0.5,1.2,0.5c0.43,0,0.87-0.17,1.2-0.5c0.66-0.66,0.66-1.73,0-2.39l-9.38-9.38
		c1.22-0.96,2.38-1.99,3.5-3.1c7.31-7.31,11.33-17.02,11.33-27.35c0-5.88-1.29-11.54-3.83-16.8c-0.41-0.84-1.42-1.19-2.26-0.79
		c-0.84,0.41-1.19,1.42-0.79,2.26c2.32,4.8,3.49,9.96,3.49,15.33c0,19.46-15.84,35.3-35.3,35.3s-35.3-15.84-35.3-35.3
		c0-19.46,15.84-35.3,35.3-35.3c8.8,0,17.13,3.21,23.62,9.06l-5.94,5.95c-4.9-4.28-11.12-6.63-17.68-6.63
		c-14.84,0-26.91,12.07-26.91,26.91c0,14.84,12.07,26.91,26.91,26.91S70.1,63.03,70.1,48.19c0-2.39-0.31-4.77-0.94-7.05
		c-1.09-4.02-3.11-7.74-5.89-10.85l7.15-7.17c0,0,0,0,0.01-0.01c0,0,0-0.01,0.01-0.01l8.22-8.25h6.4c0.93,0,1.69-0.76,1.69-1.69
		C86.77,12.23,86.01,11.48,85.07,11.48L85.07,11.48z M65.9,42.02c0.54,2,0.82,4.08,0.82,6.17c0,12.97-10.55,23.53-23.53,23.53
		c-12.97,0-23.52-10.55-23.52-23.53c0-12.97,10.55-23.52,23.52-23.52c5.66,0,11.03,1.99,15.29,5.64l-6.98,7
		c-2.31-1.76-5.18-2.82-8.3-2.82c-7.55,0-13.69,6.14-13.69,13.69c0,7.55,6.14,13.69,13.69,13.69c7.55,0,13.69-6.14,13.69-13.69
		c0-3.21-1.12-6.17-2.98-8.51l6.97-6.99C63.24,35.38,64.97,38.58,65.9,42.02L65.9,42.02z M42.23,49.01
		c0.33,0.33,0.76,0.49,1.19,0.49c0.43,0,0.87-0.17,1.2-0.5l6.89-6.91c1.26,1.71,2,3.82,2,6.09c0,5.69-4.62,10.31-10.31,10.31
		c-5.69,0-10.31-4.63-10.31-10.31c0-5.69,4.63-10.31,10.31-10.31c2.19,0,4.22,0.69,5.89,1.85l-6.86,6.88
		C41.56,47.28,41.56,48.35,42.23,49.01L42.23,49.01z M42.23,49.01"/>
	<path id="XMLID_56_" class="st0" d="M74.94,26.92c0,0.94-0.76,1.69-1.69,1.69c-0.93,0-1.69-0.76-1.69-1.69
		c0-0.93,0.76-1.69,1.69-1.69C74.18,25.22,74.94,25.98,74.94,26.92L74.94,26.92z M74.94,26.92"/>
</g>
</svg>
