<?xml version="1.0" encoding="utf-8"?>
<!-- Generator: Adobe Illustrator 24.2.1, SVG Export Plug-In . SVG Version: 6.00 Build 0)  -->
<svg version="1.1" id="Camada_1" xmlns="http://www.w3.org/2000/svg" xmlns:xlink="http://www.w3.org/1999/xlink" x="0px" y="0px"
	 viewBox="0 0 22.44 21.85" style="enable-background:new 0 0 22.44 21.85;" xml:space="preserve">
<style type="text/css">
	.st0{fill:#FFFFFF;}
	.st1{fill:none;stroke:#FFFFFF;stroke-miterlimit:10;}
</style>
<g>
	<g>
		<path class="st0" d="M-66.88,51.93c-8.27,0-15-6.73-15-15s6.73-15,15-15s15,6.73,15,15S-58.61,51.93-66.88,51.93z M-66.88,22.93
			c-7.72,0-14,6.28-14,14s6.28,14,14,14s14-6.28,14-14S-59.16,22.93-66.88,22.93z"/>
	</g>
</g>
<g>
	<path class="st0" d="M-59.69,38.38v4.98h-2.89v-4.64c0-1.17-0.42-1.96-1.46-1.96c-0.8,0-1.27,0.54-1.48,1.06
		c-0.08,0.19-0.1,0.44-0.1,0.7v4.85h-2.89c0,0,0.04-7.86,0-8.68h2.89v1.23c-0.01,0.01-0.01,0.02-0.02,0.03h0.02v-0.03
		c0.38-0.59,1.07-1.43,2.6-1.43C-61.11,34.47-59.69,35.71-59.69,38.38L-59.69,38.38z M-71.51,30.49c-0.99,0-1.63,0.65-1.63,1.5
		c0,0.83,0.63,1.5,1.6,1.5h0.02c1.01,0,1.63-0.67,1.63-1.5C-69.92,31.14-70.53,30.49-71.51,30.49L-71.51,30.49z M-72.97,43.36h2.88
		v-8.68h-2.88V43.36z"/>
</g>
<g>
	<g>
		<circle class="st1" cx="-16.9" cy="37.93" r="14.5"/>
		<g>
			<path class="st0" d="M-9.6,38.26v4.98h-2.89v-4.64c0-1.17-0.42-1.96-1.46-1.96c-0.8,0-1.27,0.54-1.48,1.06
				c-0.08,0.19-0.1,0.44-0.1,0.7v4.85h-2.89c0,0,0.04-7.86,0-8.68h2.89v1.23c-0.01,0.01-0.01,0.02-0.02,0.03h0.02v-0.03
				c0.38-0.59,1.07-1.43,2.6-1.43C-11.02,34.36-9.6,35.6-9.6,38.26L-9.6,38.26z M-21.42,30.38c-0.99,0-1.63,0.65-1.63,1.5
				c0,0.83,0.63,1.5,1.6,1.5h0.02c1.01,0,1.63-0.67,1.63-1.5C-19.83,31.02-20.44,30.38-21.42,30.38L-21.42,30.38z M-22.88,43.24H-20
				v-8.68h-2.88V43.24z"/>
		</g>
	</g>
</g>
<g>
	<g>
		<g>
			<g>
				<circle class="st0" cx="17.72" cy="34.08" r="3.87"/>
				<path class="st0" d="M9.5,46.87v-2.74c0,0,1.83-3.65,8.22-3.65s8.22,3.65,8.22,3.65v2.74H9.5z"/>
			</g>
		</g>
		<text transform="matrix(1 0 0 1 36.2679 42.961)" class="st0" style="font-family:'Montserrat-SemiBold'; font-size:12px;">LOGIN</text>
	</g>
</g>
<path id="XMLID_53_" class="st0" d="M-18.95,44.14h2.94v-7.35h2.05l0.22-2.46h-2.27c0,0,0-0.92,0-1.4c0-0.58,0.12-0.81,0.68-0.81
	c0.45,0,1.59,0,1.59,0v-2.56c0,0-1.68,0-2.03,0c-2.19,0-3.17,0.96-3.17,2.8c0,1.6,0,1.96,0,1.96h-1.53v2.49h1.53V44.14z"/>
<g>
	<g>
		<circle class="st0" cx="11.22" cy="6.47" r="3.87"/>
		<path class="st0" d="M3,19.25v-2.74c0,0,1.83-3.65,8.22-3.65s8.22,3.65,8.22,3.65v2.74H3z"/>
	</g>
</g>
</svg>
