<?xml version="1.0" encoding="utf-8"?>
<!-- Generator: Adobe Illustrator 24.2.1, SVG Export Plug-In . SVG Version: 6.00 Build 0)  -->
<svg version="1.1" id="Camada_1" xmlns="http://www.w3.org/2000/svg" xmlns:xlink="http://www.w3.org/1999/xlink" x="0px" y="0px"
	 viewBox="0 0 108 117" style="enable-background:new 0 0 108 117;" xml:space="preserve">
<style type="text/css">
	.st0{fill:#FFFFFF;}
</style>
<g>
	<g>
		<g>
			<path class="st0" d="M10.25,107.75c-0.38,0-0.77-0.15-1.06-0.44c-0.59-0.59-0.59-1.54,0-2.12L55.88,58.5L9.19,11.81
				c-0.59-0.59-0.59-1.54,0-2.12c0.59-0.59,1.54-0.59,2.12,0l47.94,47.94v1.74l-47.94,47.94C11.02,107.6,10.63,107.75,10.25,107.75z
				"/>
		</g>
		<g>
			<path class="st0" d="M50.25,107.75c-0.38,0-0.77-0.15-1.06-0.44c-0.59-0.59-0.59-1.54,0-2.12L95.88,58.5L49.19,11.81
				c-0.59-0.59-0.59-1.54,0-2.12c0.59-0.59,1.54-0.59,2.12,0l47.94,47.94v1.74l-47.94,47.94C51.02,107.6,50.63,107.75,50.25,107.75z
				"/>
		</g>
	</g>
</g>
</svg>
